<mxfile host="app.diagrams.net" agent="Mozilla/5.0 (Macintosh; Intel Mac OS X 10_15_7) AppleWebKit/605.1.15 (KHTML, like Gecko) Version/18.3 Safari/605.1.15" version="26.1.0">
  <diagram name="Page-1" id="90a13364-a465-7bf4-72fc-28e22215d7a0">
    <mxGraphModel dx="1026" dy="2445.5" grid="1" gridSize="10" guides="1" tooltips="1" connect="1" arrows="1" fold="1" page="1" pageScale="1.5" pageWidth="1654" pageHeight="1169" background="none" math="0" shadow="0">
      <root>
        <mxCell id="0" style=";html=1;" />
        <mxCell id="1" style=";html=1;" parent="0" />
        <mxCell id="W3gF5fgbdOcZ_mwXXCGC-105" value="&lt;font style=&quot;font-size: 40px;&quot;&gt;External components&lt;/font&gt;" style="rounded=0;whiteSpace=wrap;html=1;opacity=70;fillColor=#fa6800;fontColor=#000000;strokeColor=#C73500;labelPosition=center;verticalLabelPosition=top;align=center;verticalAlign=bottom;" parent="1" vertex="1">
          <mxGeometry x="1600" y="939" width="410" height="441" as="geometry" />
        </mxCell>
        <mxCell id="W3gF5fgbdOcZ_mwXXCGC-28" value="&lt;span&gt;PCB&lt;/span&gt;" style="rounded=0;whiteSpace=wrap;html=1;fillColor=#008a00;strokeColor=#005700;opacity=70;labelPosition=center;verticalLabelPosition=top;align=center;verticalAlign=bottom;fontSize=40;fontColor=light-dark(#000000, #121212);" parent="1" vertex="1">
          <mxGeometry x="370" y="230" width="1190" height="1150" as="geometry" />
        </mxCell>
        <mxCell id="W3gF5fgbdOcZ_mwXXCGC-97" value="User Interface Subcircuit" style="rounded=0;whiteSpace=wrap;html=1;fillColor=#dae8fc;strokeColor=#6c8ebf;opacity=70;fontSize=21;labelPosition=center;verticalLabelPosition=top;align=center;verticalAlign=bottom;" parent="1" vertex="1">
          <mxGeometry x="1240" y="550" width="320" height="330" as="geometry" />
        </mxCell>
        <mxCell id="W3gF5fgbdOcZ_mwXXCGC-66" value="&lt;font style=&quot;font-size: 21px;&quot;&gt;Power Subcircuit&lt;/font&gt;" style="rounded=0;whiteSpace=wrap;html=1;opacity=70;fillColor=#f8cecc;strokeColor=#b85450;labelPosition=center;verticalLabelPosition=top;align=center;verticalAlign=bottom;" parent="1" vertex="1">
          <mxGeometry x="401" y="1124" width="699" height="246" as="geometry" />
        </mxCell>
        <mxCell id="W3gF5fgbdOcZ_mwXXCGC-38" value="&lt;font style=&quot;font-size: 21px;&quot;&gt;Self-Test Subcircuit&lt;/font&gt;" style="rounded=0;whiteSpace=wrap;html=1;opacity=70;fillColor=#e1d5e7;strokeColor=#9673a6;labelPosition=center;verticalLabelPosition=top;align=center;verticalAlign=bottom;" parent="1" vertex="1">
          <mxGeometry x="630" y="340" width="520" height="260" as="geometry" />
        </mxCell>
        <mxCell id="W3gF5fgbdOcZ_mwXXCGC-27" value="&lt;font style=&quot;font-size: 21px;&quot;&gt;Filtering subcurcuit&lt;/font&gt;" style="rounded=0;whiteSpace=wrap;html=1;fillColor=#fff2cc;opacity=70;strokeColor=#d6b656;labelPosition=center;verticalLabelPosition=top;align=center;verticalAlign=bottom;" parent="1" vertex="1">
          <mxGeometry x="650" y="654" width="461" height="390" as="geometry" />
        </mxCell>
        <mxCell id="3a17f1ce550125da-1" value="GarMen StepTracker" style="whiteSpace=wrap;html=1;shadow=1;fontSize=40;fillColor=#f5f5f5;strokeColor=#666666;strokeWidth=2;dashed=1;" parent="1" vertex="1">
          <mxGeometry x="1110" y="-90" width="355" height="220" as="geometry" />
        </mxCell>
        <mxCell id="W3gF5fgbdOcZ_mwXXCGC-30" style="edgeStyle=orthogonalEdgeStyle;rounded=0;orthogonalLoop=1;jettySize=auto;html=1;entryX=1;entryY=0.5;entryDx=0;entryDy=0;" parent="1" source="3a17f1ce550125da-2" target="W3gF5fgbdOcZ_mwXXCGC-98" edge="1">
          <mxGeometry relative="1" as="geometry">
            <Array as="points">
              <mxPoint x="1190" y="440" />
            </Array>
          </mxGeometry>
        </mxCell>
        <mxCell id="W3gF5fgbdOcZ_mwXXCGC-31" value="Self-test digital signal (3.3V)" style="edgeLabel;html=1;align=center;verticalAlign=middle;resizable=0;points=[];fontSize=15;" parent="W3gF5fgbdOcZ_mwXXCGC-30" vertex="1" connectable="0">
          <mxGeometry x="0.7371" y="-1" relative="1" as="geometry">
            <mxPoint x="6" y="1" as="offset" />
          </mxGeometry>
        </mxCell>
        <mxCell id="W3gF5fgbdOcZ_mwXXCGC-71" style="edgeStyle=orthogonalEdgeStyle;rounded=0;orthogonalLoop=1;jettySize=auto;html=1;entryX=0;entryY=0.5;entryDx=0;entryDy=0;" parent="1" source="3a17f1ce550125da-2" target="W3gF5fgbdOcZ_mwXXCGC-69" edge="1">
          <mxGeometry relative="1" as="geometry">
            <Array as="points">
              <mxPoint x="1500" y="1069" />
              <mxPoint x="1500" y="1069" />
            </Array>
          </mxGeometry>
        </mxCell>
        <mxCell id="W3gF5fgbdOcZ_mwXXCGC-72" value="&lt;font style=&quot;font-size: 15px;&quot;&gt;SPI Communication&lt;/font&gt;" style="edgeLabel;html=1;align=center;verticalAlign=middle;resizable=0;points=[];" parent="W3gF5fgbdOcZ_mwXXCGC-71" vertex="1" connectable="0">
          <mxGeometry x="-0.0133" relative="1" as="geometry">
            <mxPoint x="-89" y="4" as="offset" />
          </mxGeometry>
        </mxCell>
        <mxCell id="W3gF5fgbdOcZ_mwXXCGC-93" style="edgeStyle=orthogonalEdgeStyle;rounded=0;orthogonalLoop=1;jettySize=auto;html=1;exitX=1;exitY=0.25;exitDx=0;exitDy=0;entryX=0.5;entryY=1;entryDx=0;entryDy=0;" parent="1" source="3a17f1ce550125da-2" target="W3gF5fgbdOcZ_mwXXCGC-89" edge="1">
          <mxGeometry relative="1" as="geometry" />
        </mxCell>
        <mxCell id="W3gF5fgbdOcZ_mwXXCGC-95" value="&lt;font style=&quot;font-size: 15px;&quot;&gt;GPIO&lt;/font&gt;" style="edgeLabel;html=1;align=center;verticalAlign=middle;resizable=0;points=[];" parent="W3gF5fgbdOcZ_mwXXCGC-93" vertex="1" connectable="0">
          <mxGeometry x="0.0412" y="3" relative="1" as="geometry">
            <mxPoint y="1" as="offset" />
          </mxGeometry>
        </mxCell>
        <mxCell id="3a17f1ce550125da-2" value="32-bit MCU&lt;div&gt;ESP32 WROOM 32E 8M&lt;/div&gt;" style="whiteSpace=wrap;html=1;shadow=1;fontSize=18;fillColor=#f5f5f5;strokeColor=#666666;" parent="1" vertex="1">
          <mxGeometry x="1138" y="894" width="170" height="280" as="geometry" />
        </mxCell>
        <mxCell id="W3gF5fgbdOcZ_mwXXCGC-4" style="edgeStyle=orthogonalEdgeStyle;rounded=0;orthogonalLoop=1;jettySize=auto;html=1;entryX=0;entryY=0.5;entryDx=0;entryDy=0;" parent="1" source="3a17f1ce550125da-8" target="W3gF5fgbdOcZ_mwXXCGC-1" edge="1">
          <mxGeometry relative="1" as="geometry">
            <Array as="points">
              <mxPoint x="670" y="864" />
              <mxPoint x="670" y="780" />
            </Array>
          </mxGeometry>
        </mxCell>
        <mxCell id="W3gF5fgbdOcZ_mwXXCGC-7" value="Raw X&amp;nbsp;&lt;div&gt;(bandwidth 500Hz)&lt;/div&gt;" style="edgeLabel;html=1;align=center;verticalAlign=middle;resizable=0;points=[];fontSize=15;" parent="W3gF5fgbdOcZ_mwXXCGC-4" vertex="1" connectable="0">
          <mxGeometry x="0.6747" y="3" relative="1" as="geometry">
            <mxPoint x="-18" y="3" as="offset" />
          </mxGeometry>
        </mxCell>
        <mxCell id="W3gF5fgbdOcZ_mwXXCGC-5" style="edgeStyle=orthogonalEdgeStyle;rounded=0;orthogonalLoop=1;jettySize=auto;html=1;entryX=0;entryY=0.5;entryDx=0;entryDy=0;" parent="1" source="3a17f1ce550125da-8" target="W3gF5fgbdOcZ_mwXXCGC-2" edge="1">
          <mxGeometry relative="1" as="geometry" />
        </mxCell>
        <mxCell id="W3gF5fgbdOcZ_mwXXCGC-6" style="edgeStyle=orthogonalEdgeStyle;rounded=0;orthogonalLoop=1;jettySize=auto;html=1;exitX=1;exitY=0.5;exitDx=0;exitDy=0;entryX=0;entryY=0.5;entryDx=0;entryDy=0;" parent="1" source="3a17f1ce550125da-8" target="W3gF5fgbdOcZ_mwXXCGC-3" edge="1">
          <mxGeometry relative="1" as="geometry">
            <Array as="points">
              <mxPoint x="670" y="864" />
              <mxPoint x="670" y="950" />
            </Array>
          </mxGeometry>
        </mxCell>
        <mxCell id="3a17f1ce550125da-8" value="&lt;div&gt;Accelerometer&lt;/div&gt;ADXL335" style="whiteSpace=wrap;html=1;shadow=1;fontSize=18;fillColor=#f5f5f5;strokeColor=#666666;" parent="1" vertex="1">
          <mxGeometry x="441" y="789" width="120" height="150" as="geometry" />
        </mxCell>
        <mxCell id="W3gF5fgbdOcZ_mwXXCGC-1" value="Analogue filter&lt;div&gt;X&lt;/div&gt;" style="whiteSpace=wrap;html=1;shadow=1;fontSize=18;fillColor=#f5f5f5;strokeColor=#666666;" parent="1" vertex="1">
          <mxGeometry x="828" y="750" width="120" height="60" as="geometry" />
        </mxCell>
        <mxCell id="W3gF5fgbdOcZ_mwXXCGC-2" value="Analogue filter&lt;div&gt;Y&lt;/div&gt;" style="whiteSpace=wrap;html=1;shadow=1;fontSize=18;fillColor=#f5f5f5;strokeColor=#666666;" parent="1" vertex="1">
          <mxGeometry x="828" y="834" width="120" height="60" as="geometry" />
        </mxCell>
        <mxCell id="W3gF5fgbdOcZ_mwXXCGC-43" style="edgeStyle=orthogonalEdgeStyle;rounded=0;orthogonalLoop=1;jettySize=auto;html=1;exitX=1;exitY=0.5;exitDx=0;exitDy=0;entryX=1;entryY=0.5;entryDx=0;entryDy=0;" parent="1" source="W3gF5fgbdOcZ_mwXXCGC-3" target="W3gF5fgbdOcZ_mwXXCGC-10" edge="1">
          <mxGeometry relative="1" as="geometry">
            <Array as="points">
              <mxPoint x="1100" y="950" />
              <mxPoint x="1100" y="1074" />
            </Array>
          </mxGeometry>
        </mxCell>
        <mxCell id="W3gF5fgbdOcZ_mwXXCGC-3" value="Analogue filter&lt;div&gt;Z&lt;/div&gt;" style="whiteSpace=wrap;html=1;shadow=1;fontSize=18;fillColor=#f5f5f5;strokeColor=#666666;" parent="1" vertex="1">
          <mxGeometry x="828" y="920" width="120" height="60" as="geometry" />
        </mxCell>
        <mxCell id="W3gF5fgbdOcZ_mwXXCGC-8" value="Raw Y&amp;nbsp;&lt;div&gt;(bandwidth 500Hz)&lt;/div&gt;" style="edgeLabel;html=1;align=center;verticalAlign=middle;resizable=0;points=[];fontSize=15;" parent="1" vertex="1" connectable="0">
          <mxGeometry x="751.0000000000002" y="864" as="geometry" />
        </mxCell>
        <mxCell id="W3gF5fgbdOcZ_mwXXCGC-9" value="Raw Z&amp;nbsp;&lt;div&gt;(bandwidth 500z)&lt;/div&gt;" style="edgeLabel;html=1;align=center;verticalAlign=middle;resizable=0;points=[];rotation=0;fontSize=15;" parent="1" vertex="1" connectable="0">
          <mxGeometry x="751.0000000000002" y="950" as="geometry" />
        </mxCell>
        <mxCell id="W3gF5fgbdOcZ_mwXXCGC-10" value="BNC connector" style="whiteSpace=wrap;html=1;shadow=1;fontSize=18;fillColor=#f5f5f5;strokeColor=#666666;" parent="1" vertex="1">
          <mxGeometry x="411" y="1044" width="120" height="60" as="geometry" />
        </mxCell>
        <mxCell id="W3gF5fgbdOcZ_mwXXCGC-12" style="edgeStyle=orthogonalEdgeStyle;rounded=0;orthogonalLoop=1;jettySize=auto;html=1;entryX=0.024;entryY=0.149;entryDx=0;entryDy=0;entryPerimeter=0;" parent="1" source="W3gF5fgbdOcZ_mwXXCGC-2" target="3a17f1ce550125da-2" edge="1">
          <mxGeometry relative="1" as="geometry">
            <Array as="points">
              <mxPoint x="1091" y="864" />
              <mxPoint x="1091" y="936" />
            </Array>
          </mxGeometry>
        </mxCell>
        <mxCell id="W3gF5fgbdOcZ_mwXXCGC-13" style="edgeStyle=orthogonalEdgeStyle;rounded=0;orthogonalLoop=1;jettySize=auto;html=1;entryX=0.018;entryY=0.2;entryDx=0;entryDy=0;entryPerimeter=0;" parent="1" source="W3gF5fgbdOcZ_mwXXCGC-3" target="3a17f1ce550125da-2" edge="1">
          <mxGeometry relative="1" as="geometry" />
        </mxCell>
        <mxCell id="W3gF5fgbdOcZ_mwXXCGC-17" style="edgeStyle=orthogonalEdgeStyle;rounded=0;orthogonalLoop=1;jettySize=auto;html=1;entryX=0.024;entryY=0.099;entryDx=0;entryDy=0;entryPerimeter=0;" parent="1" source="W3gF5fgbdOcZ_mwXXCGC-1" target="3a17f1ce550125da-2" edge="1">
          <mxGeometry relative="1" as="geometry">
            <Array as="points">
              <mxPoint x="1101" y="780" />
              <mxPoint x="1101" y="922" />
            </Array>
          </mxGeometry>
        </mxCell>
        <mxCell id="W3gF5fgbdOcZ_mwXXCGC-21" value="Filtered X&amp;nbsp;&lt;div&gt;(bandwidth 25Hz)&lt;/div&gt;" style="edgeLabel;html=1;align=center;verticalAlign=middle;resizable=0;points=[];fontSize=15;" parent="1" vertex="1" connectable="0">
          <mxGeometry x="1020.9976923076922" y="780.0000000000001" as="geometry" />
        </mxCell>
        <mxCell id="W3gF5fgbdOcZ_mwXXCGC-22" value="Filtered Y&amp;nbsp;&lt;div&gt;(bandwidth 25Hz)&lt;/div&gt;" style="edgeLabel;html=1;align=center;verticalAlign=middle;resizable=0;points=[];fontSize=15;" parent="1" vertex="1" connectable="0">
          <mxGeometry x="1020.9976923076922" y="864.0000000000001" as="geometry" />
        </mxCell>
        <mxCell id="W3gF5fgbdOcZ_mwXXCGC-23" value="Filtered Z&lt;div&gt;&lt;div&gt;(bandwidth 25Hz)&lt;/div&gt;&lt;/div&gt;" style="edgeLabel;html=1;align=center;verticalAlign=middle;resizable=0;points=[];fontSize=15;" parent="1" vertex="1" connectable="0">
          <mxGeometry x="1020.9976923076922" y="944.0000000000001" as="geometry" />
        </mxCell>
        <mxCell id="W3gF5fgbdOcZ_mwXXCGC-32" style="edgeStyle=orthogonalEdgeStyle;rounded=0;orthogonalLoop=1;jettySize=auto;html=1;entryX=0.5;entryY=0;entryDx=0;entryDy=0;exitX=0;exitY=0.5;exitDx=0;exitDy=0;" parent="1" source="W3gF5fgbdOcZ_mwXXCGC-98" target="3a17f1ce550125da-8" edge="1">
          <mxGeometry relative="1" as="geometry" />
        </mxCell>
        <mxCell id="W3gF5fgbdOcZ_mwXXCGC-33" value="&lt;font style=&quot;font-size: 15px;&quot;&gt;Self-test signal ( 3.3V)&lt;/font&gt;" style="edgeLabel;html=1;align=center;verticalAlign=middle;resizable=0;points=[];fontSize=13;" parent="W3gF5fgbdOcZ_mwXXCGC-32" vertex="1" connectable="0">
          <mxGeometry x="-0.7708" y="-1" relative="1" as="geometry">
            <mxPoint x="-19" y="1" as="offset" />
          </mxGeometry>
        </mxCell>
        <mxCell id="W3gF5fgbdOcZ_mwXXCGC-34" value="ST pin" style="text;html=1;align=center;verticalAlign=middle;whiteSpace=wrap;rounded=0;" parent="1" vertex="1">
          <mxGeometry x="471" y="789" width="60" height="30" as="geometry" />
        </mxCell>
        <mxCell id="W3gF5fgbdOcZ_mwXXCGC-35" value="&lt;font style=&quot;font-size: 15px;&quot;&gt;Dig pin&lt;/font&gt;" style="text;html=1;align=center;verticalAlign=middle;whiteSpace=wrap;rounded=0;" parent="1" vertex="1">
          <mxGeometry x="1160" y="890" width="60" height="30" as="geometry" />
        </mxCell>
        <mxCell id="W3gF5fgbdOcZ_mwXXCGC-36" value="&lt;font style=&quot;font-size: 15px;&quot;&gt;Analog pins&lt;/font&gt;" style="text;html=1;align=center;verticalAlign=middle;whiteSpace=wrap;rounded=0;" parent="1" vertex="1">
          <mxGeometry x="1138" y="920" width="60" height="30" as="geometry" />
        </mxCell>
        <mxCell id="W3gF5fgbdOcZ_mwXXCGC-50" style="edgeStyle=orthogonalEdgeStyle;rounded=0;orthogonalLoop=1;jettySize=auto;html=1;entryX=0;entryY=0.5;entryDx=0;entryDy=0;" parent="1" source="W3gF5fgbdOcZ_mwXXCGC-42" target="W3gF5fgbdOcZ_mwXXCGC-46" edge="1">
          <mxGeometry relative="1" as="geometry">
            <Array as="points">
              <mxPoint x="1790" y="1420" />
              <mxPoint x="580" y="1420" />
              <mxPoint x="580" y="1184" />
            </Array>
          </mxGeometry>
        </mxCell>
        <mxCell id="W3gF5fgbdOcZ_mwXXCGC-42" value="3.7V Lipo Battery&lt;div&gt;3000mAh&lt;br&gt;&lt;div&gt;ARROWMAX&lt;/div&gt;&lt;/div&gt;" style="whiteSpace=wrap;html=1;shadow=1;fontSize=18;fillColor=#f5f5f5;strokeColor=#666666;" parent="1" vertex="1">
          <mxGeometry x="1705" y="1174" width="170" height="170" as="geometry" />
        </mxCell>
        <mxCell id="W3gF5fgbdOcZ_mwXXCGC-48" style="edgeStyle=orthogonalEdgeStyle;rounded=0;orthogonalLoop=1;jettySize=auto;html=1;entryX=0;entryY=0.5;entryDx=0;entryDy=0;" parent="1" source="W3gF5fgbdOcZ_mwXXCGC-45" target="W3gF5fgbdOcZ_mwXXCGC-46" edge="1">
          <mxGeometry relative="1" as="geometry" />
        </mxCell>
        <mxCell id="W3gF5fgbdOcZ_mwXXCGC-51" value="&lt;font&gt;3.7 - 5V DC&lt;/font&gt;" style="edgeLabel;html=1;align=center;verticalAlign=middle;resizable=0;points=[];fontSize=15;" parent="W3gF5fgbdOcZ_mwXXCGC-48" vertex="1" connectable="0">
          <mxGeometry x="0.3542" y="-1" relative="1" as="geometry">
            <mxPoint x="-5" y="-11" as="offset" />
          </mxGeometry>
        </mxCell>
        <mxCell id="W3gF5fgbdOcZ_mwXXCGC-45" value="Power barrel connector" style="whiteSpace=wrap;html=1;shadow=1;fontSize=18;fillColor=#f5f5f5;strokeColor=#666666;" parent="1" vertex="1">
          <mxGeometry x="411" y="1154" width="120" height="60" as="geometry" />
        </mxCell>
        <mxCell id="2RN-wz4lPQ73hh0BGacc-1" style="edgeStyle=orthogonalEdgeStyle;rounded=0;orthogonalLoop=1;jettySize=auto;html=1;" parent="1" source="W3gF5fgbdOcZ_mwXXCGC-46" target="W3gF5fgbdOcZ_mwXXCGC-54" edge="1">
          <mxGeometry relative="1" as="geometry" />
        </mxCell>
        <mxCell id="W3gF5fgbdOcZ_mwXXCGC-46" value="Power switch" style="whiteSpace=wrap;html=1;shadow=1;fontSize=18;fillColor=#f5f5f5;strokeColor=#666666;" parent="1" vertex="1">
          <mxGeometry x="700" y="1154" width="69" height="60" as="geometry" />
        </mxCell>
        <mxCell id="W3gF5fgbdOcZ_mwXXCGC-63" style="edgeStyle=orthogonalEdgeStyle;rounded=0;orthogonalLoop=1;jettySize=auto;html=1;exitX=0;exitY=0.75;exitDx=0;exitDy=0;entryX=1;entryY=0.5;entryDx=0;entryDy=0;" parent="1" source="W3gF5fgbdOcZ_mwXXCGC-54" target="W3gF5fgbdOcZ_mwXXCGC-62" edge="1">
          <mxGeometry relative="1" as="geometry">
            <Array as="points">
              <mxPoint x="880" y="1302" />
              <mxPoint x="880" y="1352" />
            </Array>
          </mxGeometry>
        </mxCell>
        <mxCell id="W3gF5fgbdOcZ_mwXXCGC-85" style="edgeStyle=orthogonalEdgeStyle;rounded=0;orthogonalLoop=1;jettySize=auto;html=1;exitX=0;exitY=0.75;exitDx=0;exitDy=0;entryX=1;entryY=0.75;entryDx=0;entryDy=0;" parent="1" source="W3gF5fgbdOcZ_mwXXCGC-54" target="W3gF5fgbdOcZ_mwXXCGC-79" edge="1">
          <mxGeometry relative="1" as="geometry" />
        </mxCell>
        <mxCell id="W3gF5fgbdOcZ_mwXXCGC-86" style="edgeStyle=orthogonalEdgeStyle;rounded=0;orthogonalLoop=1;jettySize=auto;html=1;exitX=0;exitY=0.25;exitDx=0;exitDy=0;entryX=1;entryY=0.25;entryDx=0;entryDy=0;" parent="1" source="W3gF5fgbdOcZ_mwXXCGC-54" target="W3gF5fgbdOcZ_mwXXCGC-79" edge="1">
          <mxGeometry relative="1" as="geometry" />
        </mxCell>
        <mxCell id="W3gF5fgbdOcZ_mwXXCGC-87" style="edgeStyle=orthogonalEdgeStyle;rounded=0;orthogonalLoop=1;jettySize=auto;html=1;exitX=0;exitY=0.25;exitDx=0;exitDy=0;entryX=1;entryY=0.5;entryDx=0;entryDy=0;" parent="1" source="W3gF5fgbdOcZ_mwXXCGC-54" target="W3gF5fgbdOcZ_mwXXCGC-57" edge="1">
          <mxGeometry relative="1" as="geometry">
            <Array as="points">
              <mxPoint x="880" y="1272" />
              <mxPoint x="880" y="1246" />
            </Array>
          </mxGeometry>
        </mxCell>
        <mxCell id="W3gF5fgbdOcZ_mwXXCGC-54" value="LDO Voltage Regulator" style="whiteSpace=wrap;html=1;shadow=1;fontSize=18;fillColor=#f5f5f5;strokeColor=#666666;" parent="1" vertex="1">
          <mxGeometry x="930" y="1257" width="120" height="60" as="geometry" />
        </mxCell>
        <mxCell id="W3gF5fgbdOcZ_mwXXCGC-62" value="&lt;font&gt;Via&lt;/font&gt;" style="ellipse;whiteSpace=wrap;html=1;aspect=fixed;fontSize=15;" parent="1" vertex="1">
          <mxGeometry x="828" y="1337" width="30" height="30" as="geometry" />
        </mxCell>
        <mxCell id="W3gF5fgbdOcZ_mwXXCGC-65" value="3.3V" style="text;html=1;align=center;verticalAlign=middle;whiteSpace=wrap;rounded=0;fontSize=15;" parent="1" vertex="1">
          <mxGeometry x="1130" y="1124" width="60" height="30" as="geometry" />
        </mxCell>
        <mxCell id="W3gF5fgbdOcZ_mwXXCGC-69" value="1.69 Inch LCD display&lt;div&gt;Waveshare&lt;/div&gt;" style="whiteSpace=wrap;html=1;shadow=1;fontSize=18;fillColor=#f5f5f5;strokeColor=#666666;" parent="1" vertex="1">
          <mxGeometry x="1650" y="984" width="260" height="170" as="geometry" />
        </mxCell>
        <mxCell id="W3gF5fgbdOcZ_mwXXCGC-74" value="GND" style="text;html=1;align=center;verticalAlign=middle;whiteSpace=wrap;rounded=0;fontSize=15;" parent="1" vertex="1">
          <mxGeometry x="1130" y="1144" width="60" height="30" as="geometry" />
        </mxCell>
        <mxCell id="W3gF5fgbdOcZ_mwXXCGC-79" value="Power LED" style="whiteSpace=wrap;html=1;shadow=1;fontSize=18;fillColor=#f5f5f5;strokeColor=#666666;" parent="1" vertex="1">
          <mxGeometry x="700" y="1257" width="69" height="60" as="geometry" />
        </mxCell>
        <mxCell id="W3gF5fgbdOcZ_mwXXCGC-81" value="&lt;font style=&quot;font-size: 15px;&quot;&gt;3.3V&lt;/font&gt;" style="edgeLabel;html=1;align=center;verticalAlign=middle;resizable=0;points=[];" parent="1" vertex="1" connectable="0">
          <mxGeometry x="903.996923076923" y="1273.9999999999998" as="geometry" />
        </mxCell>
        <mxCell id="W3gF5fgbdOcZ_mwXXCGC-57" value="&lt;font style=&quot;font-size: 15px;&quot;&gt;Via&lt;/font&gt;" style="ellipse;whiteSpace=wrap;html=1;aspect=fixed;" parent="1" vertex="1">
          <mxGeometry x="828" y="1231" width="30" height="30" as="geometry" />
        </mxCell>
        <mxCell id="W3gF5fgbdOcZ_mwXXCGC-88" value="&lt;font style=&quot;font-size: 15px;&quot;&gt;GND&lt;/font&gt;" style="edgeLabel;html=1;align=center;verticalAlign=middle;resizable=0;points=[];" parent="1" vertex="1" connectable="0">
          <mxGeometry x="904" y="1302.3076923076922" as="geometry" />
        </mxCell>
        <mxCell id="W3gF5fgbdOcZ_mwXXCGC-92" style="edgeStyle=orthogonalEdgeStyle;rounded=0;orthogonalLoop=1;jettySize=auto;html=1;" parent="1" source="W3gF5fgbdOcZ_mwXXCGC-89" target="W3gF5fgbdOcZ_mwXXCGC-90" edge="1">
          <mxGeometry relative="1" as="geometry" />
        </mxCell>
        <mxCell id="W3gF5fgbdOcZ_mwXXCGC-89" value="LED driver x3" style="rounded=0;whiteSpace=wrap;html=1;fontSize=18;" parent="1" vertex="1">
          <mxGeometry x="1290" y="719" width="100" height="100" as="geometry" />
        </mxCell>
        <mxCell id="W3gF5fgbdOcZ_mwXXCGC-90" value="LED x3" style="rounded=0;whiteSpace=wrap;html=1;fontSize=18;" parent="1" vertex="1">
          <mxGeometry x="1290" y="570" width="100" height="100" as="geometry" />
        </mxCell>
        <mxCell id="W3gF5fgbdOcZ_mwXXCGC-94" style="edgeStyle=orthogonalEdgeStyle;rounded=0;orthogonalLoop=1;jettySize=auto;html=1;exitX=0.5;exitY=1;exitDx=0;exitDy=0;entryX=1;entryY=0.5;entryDx=0;entryDy=0;" parent="1" source="W3gF5fgbdOcZ_mwXXCGC-91" target="3a17f1ce550125da-2" edge="1">
          <mxGeometry relative="1" as="geometry" />
        </mxCell>
        <mxCell id="W3gF5fgbdOcZ_mwXXCGC-91" value="Pushbutton x3" style="rounded=0;whiteSpace=wrap;html=1;fontSize=18;" parent="1" vertex="1">
          <mxGeometry x="1440" y="654" width="100" height="100" as="geometry" />
        </mxCell>
        <mxCell id="W3gF5fgbdOcZ_mwXXCGC-96" value="&lt;font style=&quot;font-size: 15px;&quot;&gt;GPIO&lt;/font&gt;" style="edgeLabel;html=1;align=center;verticalAlign=middle;resizable=0;points=[];" parent="1" vertex="1" connectable="0">
          <mxGeometry x="1490.0000000000005" y="905.0028571428574" as="geometry" />
        </mxCell>
        <mxCell id="W3gF5fgbdOcZ_mwXXCGC-98" value="HS switch&lt;div&gt;(P-MOSFET)&lt;/div&gt;" style="whiteSpace=wrap;html=1;shadow=1;fontSize=18;fillColor=#f5f5f5;strokeColor=#666666;" parent="1" vertex="1">
          <mxGeometry x="820" y="410" width="120" height="60" as="geometry" />
        </mxCell>
        <mxCell id="W3gF5fgbdOcZ_mwXXCGC-104" value="&lt;font style=&quot;font-size: 15px;&quot;&gt;3.3V DC&lt;/font&gt;" style="edgeStyle=orthogonalEdgeStyle;rounded=0;orthogonalLoop=1;jettySize=auto;html=1;entryX=0.5;entryY=1;entryDx=0;entryDy=0;" parent="1" source="W3gF5fgbdOcZ_mwXXCGC-103" target="W3gF5fgbdOcZ_mwXXCGC-98" edge="1">
          <mxGeometry x="-0.3913" relative="1" as="geometry">
            <mxPoint as="offset" />
          </mxGeometry>
        </mxCell>
        <mxCell id="W3gF5fgbdOcZ_mwXXCGC-103" value="&lt;font style=&quot;font-size: 15px;&quot;&gt;Via&lt;/font&gt;" style="ellipse;whiteSpace=wrap;html=1;aspect=fixed;" parent="1" vertex="1">
          <mxGeometry x="1020" y="535" width="50" height="50" as="geometry" />
        </mxCell>
        <mxCell id="2RN-wz4lPQ73hh0BGacc-4" style="edgeStyle=orthogonalEdgeStyle;rounded=0;orthogonalLoop=1;jettySize=auto;html=1;exitX=1;exitY=0.5;exitDx=0;exitDy=0;entryX=0.013;entryY=0.873;entryDx=0;entryDy=0;entryPerimeter=0;" parent="1" source="2RN-wz4lPQ73hh0BGacc-2" target="3a17f1ce550125da-2" edge="1">
          <mxGeometry relative="1" as="geometry">
            <mxPoint x="1130" y="1140" as="targetPoint" />
            <Array as="points">
              <mxPoint x="1070" y="1154" />
              <mxPoint x="1070" y="1138" />
            </Array>
          </mxGeometry>
        </mxCell>
        <mxCell id="2RN-wz4lPQ73hh0BGacc-2" value="&lt;font style=&quot;font-size: 15px;&quot;&gt;Via&lt;/font&gt;" style="ellipse;whiteSpace=wrap;html=1;aspect=fixed;" parent="1" vertex="1">
          <mxGeometry x="1020" y="1139" width="30" height="30" as="geometry" />
        </mxCell>
        <mxCell id="2RN-wz4lPQ73hh0BGacc-3" value="&lt;font style=&quot;font-size: 15px;&quot;&gt;Via&lt;/font&gt;" style="ellipse;whiteSpace=wrap;html=1;aspect=fixed;" parent="1" vertex="1">
          <mxGeometry x="1020" y="1174" width="30" height="30" as="geometry" />
        </mxCell>
        <mxCell id="2RN-wz4lPQ73hh0BGacc-7" style="edgeStyle=orthogonalEdgeStyle;rounded=0;orthogonalLoop=1;jettySize=auto;html=1;entryX=0.001;entryY=0.935;entryDx=0;entryDy=0;entryPerimeter=0;" parent="1" source="2RN-wz4lPQ73hh0BGacc-3" target="3a17f1ce550125da-2" edge="1">
          <mxGeometry relative="1" as="geometry">
            <Array as="points">
              <mxPoint x="1080" y="1189" />
              <mxPoint x="1080" y="1156" />
            </Array>
          </mxGeometry>
        </mxCell>
        <mxCell id="sVlvc_ys_ApM5D9SjPhR-2" style="edgeStyle=orthogonalEdgeStyle;rounded=0;orthogonalLoop=1;jettySize=auto;html=1;exitX=1;exitY=0.5;exitDx=0;exitDy=0;entryX=0;entryY=0.5;entryDx=0;entryDy=0;" edge="1" parent="1" source="sVlvc_ys_ApM5D9SjPhR-1" target="W3gF5fgbdOcZ_mwXXCGC-46">
          <mxGeometry relative="1" as="geometry">
            <Array as="points">
              <mxPoint x="531" y="1260" />
              <mxPoint x="580" y="1260" />
              <mxPoint x="580" y="1184" />
            </Array>
          </mxGeometry>
        </mxCell>
        <mxCell id="sVlvc_ys_ApM5D9SjPhR-1" value="USB-C +5VBUS" style="whiteSpace=wrap;html=1;shadow=1;fontSize=18;fillColor=#f5f5f5;strokeColor=#666666;" vertex="1" parent="1">
          <mxGeometry x="411" y="1231" width="120" height="60" as="geometry" />
        </mxCell>
      </root>
    </mxGraphModel>
  </diagram>
</mxfile>
